<svg xmlns="http://www.w3.org/2000/svg" xmlns:xlink="http://www.w3.org/1999/xlink" viewBox="0 0 463.49 316.34">
  <defs>
    <style>
      .cls-1, .cls-2, .cls-3, .cls-4 {
        stroke: #009fe3;
        stroke-linecap: round;
        stroke-miterlimit: 10;
      }

      .cls-1 {
        fill: url(#Gradient_bez_nazwy_122);
      }

      .cls-2 {
        fill: url(#Gradient_bez_nazwy_122-2);
      }

      .cls-3 {
        fill: url(#Gradient_bez_nazwy_122-3);
      }

      .cls-4 {
        fill: url(#Gradient_bez_nazwy_122-4);
      }

      .cls-5 {
        fill: url(#Gradient_bez_nazwy_124);
      }
    </style>
    <radialGradient id="Gradient_bez_nazwy_122" data-name="Gradient bez nazwy 122" cx="315.8" cy="106.69" fx="371.3184315042818" r="55.53" gradientTransform="translate(179.6 -49.32) rotate(29.42) scale(1 0.95)" gradientUnits="userSpaceOnUse">
      <stop offset="0.46" stop-color="#b3dac5"/>
      <stop offset="0.53" stop-color="#8cc"/>
      <stop offset="0.6" stop-color="#5fbed3"/>
      <stop offset="0.68" stop-color="#3db3d9"/>
      <stop offset="0.76" stop-color="#2ad"/>
      <stop offset="0.83" stop-color="#0fa4e0"/>
      <stop offset="0.91" stop-color="#04a0e2"/>
      <stop offset="1" stop-color="#009fe3"/>
    </radialGradient>
    <radialGradient id="Gradient_bez_nazwy_122-2" cx="327.7" cy="188.38" fx="383.22390403885214" r="55.53" gradientTransform="matrix(0.56, 0.83, -0.79, 0.53, 291.9, -114.08)" xlink:href="#Gradient_bez_nazwy_122"/>
    <radialGradient id="Gradient_bez_nazwy_122-3" cx="274.78" cy="300.02" fx="330.3040294338934" r="55.53" gradientTransform="matrix(-0.51, 0.86, -0.82, -0.49, 544.54, 168.66)" xlink:href="#Gradient_bez_nazwy_122"/>
    <radialGradient id="Gradient_bez_nazwy_122-4" cx="300.56" cy="397.74" fx="356.08187292962174" r="55.53" gradientTransform="matrix(-0.91, 0.42, -0.4, -0.87, 491.93, 414.25)" xlink:href="#Gradient_bez_nazwy_122"/>
    <radialGradient id="Gradient_bez_nazwy_124" data-name="Gradient bez nazwy 124" cx="194.4" cy="70.84" fx="128.695225488698" fy="15.890546985182453" r="119.92" gradientTransform="translate(291.85 -128.82) rotate(87.06) scale(1 1.52)" gradientUnits="userSpaceOnUse">
      <stop offset="0.42" stop-color="#b3dac5"/>
      <stop offset="0.49" stop-color="#8cc"/>
      <stop offset="0.57" stop-color="#5fbed3"/>
      <stop offset="0.65" stop-color="#3db3d9"/>
      <stop offset="0.73" stop-color="#2ad"/>
      <stop offset="0.82" stop-color="#0fa4e0"/>
      <stop offset="0.91" stop-color="#04a0e2"/>
      <stop offset="1" stop-color="#009fe3"/>
    </radialGradient>
  </defs>
  <g id="Warstwa_2" data-name="Warstwa 2">
    <g id="medusa">
      <path id="leg4" class="cls-1" d="M286.06,112l147.43,55.67c27,11.15,35.56,41.59,25.27,58.81s-40.87,24.1-63.52,5.83c-43.25-27.94-111.95-77.91-126.85-89Z"/>
      <path id="leg3" class="cls-2" d="M257.77,131.28,365,246.74c19.26,22,13.35,53.07-3.53,63.91s-47.33,3.4-59.48-23c-26.31-44.27-65.6-119.58-74-136.13Z"/>
      <path id="leg2" class="cls-3" d="M243.57,141.4l-59.34,146c-11.82,26.76-42.47,34.52-59.43,23.8s-23.07-41.47-4.24-63.65c29-42.54,80.69-110,92.14-124.58Z"/>
      <path id="leg1" class="cls-4" d="M196.82,147.77,65.31,234.6C40.43,250,10.77,239,2.84,220.62s4.43-47.25,32.51-54.89c48-18.67,128.73-45,146.44-50.64Z"/>
      <path class="cls-5" d="M378.4,111.72c-12.59,10.55-62,49.48-138.68,52.32-88,3.26-146-43.44-156.64-52.32C104.23,64,128.8,81.25,150,33.52,154,29.72,194.16-6.5,251.18,1a119,119,0,0,1,67.18,32.49C339.51,81.25,357.25,64,378.4,111.72Z"/>
    </g>
  </g>
</svg>
