<svg xmlns="http://www.w3.org/2000/svg" xmlns:xlink="http://www.w3.org/1999/xlink" viewBox="0 0 316.39 323.48">
  <defs>
    <style>
      .cls-1, .cls-2, .cls-3, .cls-4 {
        stroke: #009fe3;
        stroke-linecap: round;
        stroke-miterlimit: 10;
      }

      .cls-1 {
        fill: url(#Gradient_bez_nazwy_122);
      }

      .cls-2 {
        fill: url(#Gradient_bez_nazwy_122-2);
      }

      .cls-3 {
        fill: url(#Gradient_bez_nazwy_122-3);
      }

      .cls-4 {
        fill: url(#Gradient_bez_nazwy_122-4);
      }

      .cls-5 {
        fill: url(#Gradient_bez_nazwy_124);
      }
    </style>
    <radialGradient id="Gradient_bez_nazwy_122" data-name="Gradient bez nazwy 122" cx="235.31" cy="153.15" fx="290.8273168970575" r="55.53" gradientTransform="matrix(0.34, 0.94, -0.89, 0.33, 327.66, -29.7)" gradientUnits="userSpaceOnUse">
      <stop offset="0.46" stop-color="#b3dac5"/>
      <stop offset="0.53" stop-color="#8cc"/>
      <stop offset="0.6" stop-color="#5fbed3"/>
      <stop offset="0.68" stop-color="#3db3d9"/>
      <stop offset="0.76" stop-color="#2ad"/>
      <stop offset="0.83" stop-color="#0fa4e0"/>
      <stop offset="0.91" stop-color="#04a0e2"/>
      <stop offset="1" stop-color="#009fe3"/>
    </radialGradient>
    <radialGradient id="Gradient_bez_nazwy_122-2" cx="228.6" cy="216.35" fx="284.12258964805454" r="55.53" gradientTransform="matrix(0.1, 0.99, -0.95, 0.1, 378.92, 9.39)" xlink:href="#Gradient_bez_nazwy_122"/>
    <radialGradient id="Gradient_bez_nazwy_122-3" cx="191.87" cy="281.52" fx="247.39329447262082" r="55.53" gradientTransform="matrix(-0.13, 0.99, -0.94, -0.13, 412.58, 106.2)" xlink:href="#Gradient_bez_nazwy_122"/>
    <radialGradient id="Gradient_bez_nazwy_122-4" cx="222.41" cy="351.3" fx="277.9279075522563" r="55.53" gradientTransform="translate(439.86 163.08) rotate(111.84) scale(1 0.95)" xlink:href="#Gradient_bez_nazwy_122"/>
    <radialGradient id="Gradient_bez_nazwy_124" data-name="Gradient bez nazwy 124" cx="120.29" cy="70.84" fx="54.59060413552713" fy="15.890546985182453" r="119.92" gradientTransform="translate(221.55 -54.82) rotate(87.06) scale(1 1.52)" gradientUnits="userSpaceOnUse">
      <stop offset="0.42" stop-color="#b3dac5"/>
      <stop offset="0.49" stop-color="#8cc"/>
      <stop offset="0.57" stop-color="#5fbed3"/>
      <stop offset="0.65" stop-color="#3db3d9"/>
      <stop offset="0.73" stop-color="#2ad"/>
      <stop offset="0.82" stop-color="#0fa4e0"/>
      <stop offset="0.91" stop-color="#04a0e2"/>
      <stop offset="1" stop-color="#009fe3"/>
    </radialGradient>
  </defs>
  <g id="Warstwa_2" data-name="Warstwa 2">
    <g id="medusa">
      <path id="leg4" class="cls-1" d="M234.61,101.65l75.9,138.11c13.31,26,0,54.73-19,61.13s-46.73-8.24-52.08-36.84C224.71,214.7,205,132.09,200.82,114Z"/>
      <path id="leg3" class="cls-2" d="M196,113.48,235.77,266c6.53,28.52-13.39,53.07-33.38,54.63s-43.3-19.43-41.48-48.47c-2.2-51.45-1.13-136.39-.71-154.95Z"/>
      <path id="leg2" class="cls-3" d="M153.71,119.81l2.92,157.56c-.33,29.25-25.45,48.45-45.26,45.27s-37.53-29-28.95-56.84C92.35,215.27,113.31,133,118.07,115Z"/>
      <path id="leg1" class="cls-4" d="M112.49,116.53,76.75,270c-7.48,28.28-36.54,40.74-55,32.81S-7.5,265.5,7.63,240.63c22-46.56,62.46-121.24,71.47-137.48Z"/>
      <path class="cls-5" d="M304.29,111.72c-12.58,10.55-62,49.48-138.68,52.32C77.59,167.3,19.6,120.6,9,111.72,30.13,64,54.69,81.25,75.84,33.52c4.07-3.8,44.22-40,101.23-32.49a119.08,119.08,0,0,1,67.19,32.49C265.41,81.25,283.14,64,304.29,111.72Z"/>
    </g>
  </g>
</svg>
