<?xml version="1.0" encoding="UTF-8" standalone="no"?><!DOCTYPE svg PUBLIC "-//W3C//DTD SVG 1.1//EN" "http://www.w3.org/Graphics/SVG/1.1/DTD/svg11.dtd"><svg width="100%" height="100%" viewBox="0 0 1366 745" version="1.1" xmlns="http://www.w3.org/2000/svg" xmlns:xlink="http://www.w3.org/1999/xlink" xml:space="preserve" xmlns:serif="http://www.serif.com/" style="fill-rule:evenodd;clip-rule:evenodd;stroke-linejoin:round;stroke-miterlimit:2;"><g><g><g><rect x="-1352.81" y="-1931.68" width="8268.11" height="4660.36" style="fill:url(#_Linear1);"/><path d="M6926.84,-1931.68c0,-6.374 -5.167,-11.541 -11.541,-11.541c0,0 -3352.15,-27.142 -5787.68,-42.756c-1389.42,-8.908 -2480.43,-13.481 -2480.43,-13.481c-37.433,0 -67.778,30.345 -67.778,67.778c-0,0 -7.338,1498.61 -10.413,2796.22c-2.347,990.654 -1.893,1864.14 -1.893,1864.14c-0,44.229 35.855,80.084 80.084,80.084c-0,-0 1549.69,-1.953 3307.24,-9.155c2302.16,-9.433 4960.86,-26.923 4960.86,-26.923c24.304,-0 44.006,-19.702 44.006,-44.006l-32.465,-4660.36Zm-23.163,11.635l-32.075,4604.43c-353.58,-2.296 -2787.88,-17.913 -4917.17,-26.638c-1522.26,-6.238 -2888.57,-8.538 -3227.13,-9.042c0.048,-237.207 0.008,-971.241 -1.918,-1784.17c-2.689,-1134.72 -8.637,-2423.14 -10.089,-2728.73c258.837,-1.142 1226.99,-5.586 2412.33,-13.186c2352.12,-15.08 5559.16,-40.911 5776.05,-42.662Z" style="fill:url(#_Linear2);"/></g><g><g id="Ukwiały"><g><path d="M284.298,1091.96l-0.001,0.026c0.062,0.384 0.124,0.769 0.187,1.153l0.501,1.794c-1.853,2.437 -5.052,5.346 -6.745,7.515c-7.849,10.05 -17.391,20.234 -27.926,30.466c-33.482,32.522 -72.85,65.668 -99.883,100.019c-22.615,28.739 -39.481,57.208 -43.447,86.91c-5.464,47.523 0.365,105.195 17.024,163.775c22.732,79.932 58.897,158.717 81.88,209.026c1.769,5.76 7.882,9.001 13.643,7.232c5.76,-1.769 9,-7.882 7.231,-13.643c-8.877,-52.536 -21.76,-134.862 -24.431,-214.871c-1.567,-46.929 1.834,-91.396 14.158,-126.157c2.684,-8.033 10.826,-13.164 17.852,-20.209c14.897,-14.939 34.901,-27.49 54.712,-41.501c45.022,-31.843 91.135,-65.233 117.146,-100.476c29.398,-39.831 37.704,-83.372 24.323,-128.007c-6.732,-19.718 -16.794,-42.164 -32.431,-65.104c-22.18,-32.542 -53.155,-68.75 -91.064,-104.748c-30.149,-28.627 -63.408,-57.479 -99.158,-85.078c-87.373,-67.451 -181.309,-126.828 -246.394,-169.412c-4.541,-3.961 -11.444,-3.489 -15.404,1.053c-3.961,4.541 -3.489,11.444 1.053,15.404c50.3,57.83 120.347,141.712 188.266,226.674c26.474,33.118 51.687,65.748 75.14,96.946c34.931,46.468 63.802,88.098 73.768,121.213Zm0.772,2.861c1.502,-1.918 2.091,-3.525 0.311,-4.156c-0.913,-0.323 -1.166,0.277 -1.083,1.295l0.772,2.861l-0.085,0.112c0.337,1.216 0.757,2.434 1.005,3.303l-0.92,-3.415Z" style="fill:#61ff94;"/><path d="M-54.397,645.501c30.993,57.689 73.868,142.211 118.384,230.724c16.538,32.883 32.589,65.37 48.412,97.117c24.369,48.893 46.098,94.489 58.413,133.243c15.357,35.775 21.99,74.242 27.202,112.659c9.57,70.538 13.057,140.584 16.812,201.234c3.048,32.121 3.538,67.586 2.31,103.684c-2.159,63.448 -7.561,124.161 -11.394,162.595c-1.481,5.841 2.06,11.785 7.901,13.266c5.841,1.481 11.785,-2.059 13.266,-7.9c15.28,-36.431 39.605,-93.9 59.887,-155.584c12.567,-38.222 21.926,-76.644 28.181,-112.037c6.017,-38.812 14.612,-80.706 20.146,-125.359c3.653,-29.481 5.425,-59.488 5.434,-89.865c0.007,-26.36 -1.962,-52.715 -6.432,-78.701c-4.684,-27.234 -13.003,-53.73 -23.213,-79.525c-14.194,-30.551 -32.572,-65.436 -56.71,-100.821c-19.69,-28.862 -41.866,-58.244 -66.369,-87.307c-42.594,-50.519 -88.475,-98.655 -131.943,-141.975c-35.123,-35.004 -67.017,-64.257 -92.894,-88.651c-3.643,-4.799 -10.498,-5.738 -15.298,-2.095c-4.799,3.643 -5.738,10.498 -2.095,15.298Z" style="fill:#1e813e;"/><path d="M284.298,1091.96l-0.001,0.026c0.062,0.384 0.124,0.769 0.187,1.153l0.501,1.794c-1.853,2.437 -5.052,5.346 -6.745,7.515c-7.849,10.05 -17.391,20.234 -27.926,30.466c-33.482,32.522 -72.85,65.668 -99.883,100.019c-22.615,28.739 -39.481,57.208 -43.447,86.91c-5.464,47.523 0.365,105.195 17.024,163.775c22.732,79.932 58.897,158.717 81.88,209.026c1.769,5.76 7.882,9.001 13.643,7.232c5.76,-1.769 9,-7.882 7.231,-13.643c-8.877,-52.536 -21.76,-134.862 -24.431,-214.871c-1.567,-46.929 1.834,-91.396 14.158,-126.157c2.684,-8.033 10.826,-13.164 17.852,-20.209c14.897,-14.939 34.901,-27.49 54.712,-41.501c45.022,-31.843 91.135,-65.233 117.146,-100.476c29.398,-39.831 37.704,-83.372 24.323,-128.007c-6.732,-19.718 -16.794,-42.164 -32.431,-65.104c-22.18,-32.542 -53.155,-68.75 -91.064,-104.748c-30.149,-28.627 -63.408,-57.479 -99.158,-85.078c-87.373,-67.451 -181.309,-126.828 -246.394,-169.412c-4.541,-3.961 -11.444,-3.489 -15.404,1.053c-3.961,4.541 -3.489,11.444 1.053,15.404c50.3,57.83 120.347,141.712 188.266,226.674c26.474,33.118 51.687,65.748 75.14,96.946c34.931,46.468 63.802,88.098 73.768,121.213Zm0.772,2.861c1.502,-1.918 2.091,-3.525 0.311,-4.156c-0.913,-0.323 -1.166,0.277 -1.083,1.295l0.772,2.861l-0.085,0.112c0.337,1.216 0.757,2.434 1.005,3.303l-0.92,-3.415Z" style="fill:#4cb16c;"/></g></g></g></g><g id="Meduzy"><g id="Meduza"><path d="M676.738,89.48c82.314,-28.134 236.891,-94.488 330.212,-89.179c84.659,4.815 170.849,69.539 229.713,121.029c54.868,47.996 151.227,138.016 123.47,187.914c-27.757,49.898 -198.127,95.55 -290.012,111.475c-86.185,14.937 -188.077,14.332 -261.298,-15.925c-72.578,-29.992 -128.735,-126.338 -178.027,-165.619c-36.169,-28.823 -125.385,-45.121 -117.728,-70.07c7.657,-24.949 106.738,-60.166 163.67,-79.625Zm600.667,182.596c-19.923,10.59 -46.662,36.669 -74.893,45.99c-50.095,16.538 -104.787,28.55 -144.063,35.307c-37.47,5.405 -78.138,7.299 -117.433,4.431c-37.339,-2.725 -73.053,-10.875 -102.65,-24.502c-13.229,-6.191 -24.165,-17.495 -35.447,-28.955c-33.897,-34.431 -63.399,-77.227 -90.809,-109.242l0.663,-0.196c46.831,-19.095 117.246,-53.246 186.408,-77.326c37.335,-12.999 73.195,-25.304 102.53,-25.174c28.733,0.153 58.295,9.814 85.812,24.184c36.104,18.854 69.635,42.87 96.813,64.557c24.714,20 59.073,47.873 84.616,77.265c3.453,3.973 6.104,8.875 8.453,13.661Z" style="fill:#00edff;"/><path d="M676.738,89.48c82.314,-28.134 236.891,-94.488 330.212,-89.179c84.659,4.815 170.849,69.539 229.713,121.029c54.868,47.996 151.227,138.016 123.47,187.914c-27.757,49.898 -198.127,95.55 -290.012,111.475c-86.185,14.937 -188.077,14.332 -261.298,-15.925c-72.578,-29.992 -128.735,-126.338 -178.027,-165.619c-36.169,-28.823 -125.385,-45.121 -117.728,-70.07c7.657,-24.949 106.738,-60.166 163.67,-79.625Z" style="fill:#004a63;"/><path d="M916.472,307.583c-26.697,24.36 -69.42,64.247 -117.477,96.844c-27.03,18.335 -55.232,34.902 -82.965,43.974c-25.249,7.98 -55.318,11.903 -87.296,12.956c-81.979,2.698 -173.926,-7.593 -236.731,6.138c-58.378,9.564 -118.773,59.379 -170.659,80.827c-8.746,3.615 -17.057,5.479 -24.693,4.849c-18.131,-1.633 -32.968,-17.284 -47.641,-32.052c-21.308,-21.444 -38.048,-47.294 -49.654,-64.127c-19.106,-24.09 -54.175,-28.136 -78.265,-9.031c-24.089,19.106 -28.136,54.175 -9.03,78.265c20.148,22.209 52.029,57.872 88.536,82.161c29.927,19.913 61.824,33.994 93.587,32.926c19.778,-0.522 40.924,-6.238 62.532,-17.651c45.615,-24.092 96.32,-75.731 149.095,-88.733c68.74,-12.932 172.706,3.802 258.227,1.519c26.521,-0.708 51.432,-2.971 73.77,-8.034c35.821,-7.834 73.342,-24.506 109.562,-43.815c55.992,-29.851 107.54,-67.448 139.495,-90.653c23.833,-19.426 27.41,-54.546 7.985,-78.378c-19.426,-23.833 -54.546,-27.411 -78.378,-7.985Z" style="fill:#004a63;"/><path d="M1014.61,291.917c-1.432,22.413 -2.732,56.291 -10.574,88.976c-5.726,23.861 -12.206,48.273 -28.723,62.046c-28.818,23.459 -77.853,49.557 -133.193,73.156c-36.465,15.55 -75.285,30.457 -112.865,42.932c-42.751,14.191 -83.909,24.937 -116.923,34.582c-32.671,8.582 -69.68,15.837 -106.646,21.549c-63.908,9.875 -126.751,14.96 -165.542,18.557c-30.331,5.039 -50.864,33.756 -45.824,64.086c5.04,30.331 33.756,50.864 64.087,45.824c39.02,-9.42 102.022,-25.01 166.035,-43.502c38.441,-11.106 77.079,-22.645 110.79,-35.654c30.659,-10.925 67.784,-25.149 107.853,-38.765c54.146,-18.4 112.919,-37.112 164.452,-56.636c48.866,-18.514 91.507,-37.323 119.608,-56.055c27.415,-17.915 47.287,-48.146 62.633,-81.902c19.657,-43.241 29.184,-93.47 35.323,-124.858c3.957,-30.491 -17.586,-58.458 -48.077,-62.414c-30.491,-3.956 -58.458,17.587 -62.414,48.078Z" style="fill:#004a63;"/><path d="M809.012,275.442c-0,-0 -129.624,24.293 -243.011,41.894c-29.04,4.508 -56.931,8.402 -81.27,11.227c-33.05,3.836 -59.374,6.038 -72.501,7.033c-14.571,-6.172 -52.385,-22.36 -93.656,-41.363c-69.534,-32.017 -148.058,-71.188 -148.058,-71.188c-28.803,-10.758 -60.922,3.893 -71.68,32.696c-10.758,28.803 3.893,60.921 32.695,71.679c0,-0 84.977,21.897 158.474,43.303c55.836,16.261 104.371,32.292 104.371,32.292c4.927,1.841 10.209,2.532 15.443,2.022c0,-0 33.531,-4.43 81.564,-8.219c24.426,-1.927 52.544,-3.491 81.908,-4.674c114.651,-4.621 246.527,-5.81 246.527,-5.81c30.602,-2.982 53.025,-30.248 50.043,-60.849c-2.982,-30.602 -30.248,-53.025 -60.849,-50.043Z" style="fill:#004a63;"/></g></g><g></g></g><defs><linearGradient id="_Linear1" x1="0" y1="0" x2="1" y2="0" gradientUnits="userSpaceOnUse" gradientTransform="matrix(2.77506e-13,-4532.02,2554.5,1.56418e-13,2775.52,2685.67)"><stop offset="0" style="stop-color:#007dff;stop-opacity:1"/><stop offset="1" style="stop-color:#00eac1;stop-opacity:1"/></linearGradient><linearGradient id="_Linear2" x1="0" y1="0" x2="1" y2="0" gradientUnits="userSpaceOnUse" gradientTransform="matrix(1.34827e-12,-5164.09,22018.9,3.16209e-13,11726.1,3102.22)"><stop offset="0" style="stop-color:#007dff;stop-opacity:1"/><stop offset="1" style="stop-color:#00ffd2;stop-opacity:1"/></linearGradient></defs></svg>